#N canvas 666 0 519 564 12;
#X msg 91 45 devices;
#X obj 91 100 comport 9600;
#X floatatom 91 144 5 0 110 0 - - -;
#X obj 91 209 vsl 20 128 0 247 0 0 empty empty empty 0 -9 0 10 -159808
-1 -1 51 1;
#X obj 91 364 * 15;
#X obj 91 397 osc~ 220;
#X obj 92 499 dac~;
#X msg 165 46 open 5;
#X msg 236 47 close 5;
#X obj 195 120 tgl 24 0 empty empty empty 17 7 0 10 -262144 -1 -1 1
1;
#X obj 163 429 hsl 130 27 0 1 0 0 empty empty empty -2 -8 0 10 -262144
-1 -1 0 1;
#X obj 91 467 *~ 1;
#X connect 0 0 1 0;
#X connect 1 0 2 0;
#X connect 2 0 3 0;
#X connect 3 0 4 0;
#X connect 4 0 5 0;
#X connect 5 0 11 0;
#X connect 7 0 1 0;
#X connect 8 0 1 0;
#X connect 9 0 2 0;
#X connect 10 0 11 1;
#X connect 11 0 6 0;
#X connect 11 0 6 1;
#X coords 0 288768 1 288256 0 0 0;
